<svg xmlns="http://www.w3.org/2000/svg" viewBox="0 0 64 64" role="img" aria-label="FS">
  <rect width="64" height="64" rx="16" fill="#faf7f0"/>
  <path d="M8 10 C19 2, 42 2, 54 10" fill="none" stroke="#b5403a" stroke-width="3.4" stroke-linecap="round"/>
  <path d="M54 10 C60 16, 60 47, 48 54" fill="none" stroke="#2f7a4b" stroke-width="3.4" stroke-linecap="round"/>
  <path d="M48 54 C33 61, 18 60, 8 45" fill="none" stroke="#2f7a4b" stroke-width="3.4" stroke-linecap="round"/>

  <path d="M18 18 H31 V23 H24 V28 H30 V33 H24 V43 H18 Z" fill="#b5403a"/>
  <path d="M31 18 H46 V23 H36 C34 23 32 24 32 26 C32 28 34 29 37 30 L41 31 C45 32 47 35 47 39 C47 43 44 46 39 46 H24 V41 H38 C40 41 42 40 42 38 C42 36 40 35 37 34 L33 33 C28 32 27 29 27 26 C27 21 29 18 34 18 Z" fill="#2f7a4b"/>
  <path d="M18 43 C22 38, 27 36, 34 35 C29 38, 25 40, 22 43 Z" fill="#faf7f0"/>
  <path d="M26 43 C30 39, 34 37, 40 36 C36 39, 33 41, 31 43 Z" fill="#faf7f0"/>
</svg>
