<svg xmlns="http://www.w3.org/2000/svg" viewBox="0 0 940 170" role="img" aria-label="Fernando Samudio">
  <defs>
    <style>
      .red { fill: #b5403a; }
      .green { fill: #2f7a4b; }
      .ink { fill: #13241c; }
      .sep { fill: #173126; }
      .top { font-family: Arial, Helvetica, sans-serif; font-weight: 800; letter-spacing: 0.12em; }
      .main { font-family: Arial, Helvetica, sans-serif; font-weight: 900; letter-spacing: 0.03em; }
    </style>
  </defs>

  <rect width="940" height="170" fill="none"/>

  <g transform="translate(12 18)">
    <path class="red" d="M0 20 H154 V52 H72 V74 H140 V106 H72 V142 H0 Z" />
    <path
      class="green"
      d="M170 20 H330 V50 H216 C198 50 187 60 187 74 C187 87 198 95 220 100 L267 110 C307 118 330 138 330 171 C330 205 301 226 252 226 H75 V196 H244 C267 196 281 186 281 170 C281 155 267 146 243 141 L197 131 C157 122 130 100 130 69 C130 38 154 20 195 20 Z"
      transform="translate(0 -6) scale(0.82)"
    />
    <path d="M33 139 C67 102, 105 88, 167 82 C133 97, 112 113, 91 139 Z" fill="#faf7f0" />
    <path d="M104 139 C132 108, 161 94, 220 88 C187 102, 168 116, 149 139 Z" fill="#faf7f0" />

    <rect class="sep" x="362" y="6" width="5" height="122" rx="2.5" />

    <text class="top ink" x="404" y="48" font-size="54">FERNANDO</text>
    <text class="main ink" x="404" y="122" font-size="94">SAMUDIO</text>
    <path class="red" d="M820 52 C836 34, 868 29, 893 44 C868 35, 845 36, 820 52 Z" />
  </g>
</svg>
